<svg width="144" height="65" viewBox="0 0 144 65" fill="none" xmlns="http://www.w3.org/2000/svg">
<path d="M30.2983 63.118C29.0299 63.2349 27.9021 62.3014 27.836 61.0293C27.4629 53.8413 28.4386 46.6397 30.72 39.7988C33.2448 32.2278 37.3138 25.2634 42.6694 19.3464C48.0251 13.4294 54.5507 8.68856 61.8334 5.42404C69.116 2.15952 76.9971 0.442384 84.9777 0.381303C92.9584 0.320223 100.865 1.91653 108.197 5.0692C115.528 8.22186 122.126 12.8622 127.571 18.6966C133.017 24.5309 137.192 31.4322 139.832 38.9637C142.218 45.7689 143.304 52.9547 143.041 60.1476C142.994 61.4205 141.881 62.3712 140.611 62.2738C139.341 62.1763 138.396 61.0676 138.438 59.7945C138.655 53.2387 137.654 46.6924 135.479 40.4898C133.05 33.5609 129.209 27.2117 124.199 21.8441C119.189 16.4765 113.12 12.2073 106.374 9.30687C99.6291 6.40642 92.3552 4.93781 85.013 4.99401C77.6708 5.0502 70.4203 6.62997 63.7202 9.63333C57.0202 12.6367 51.0166 16.9982 46.0894 22.4419C41.1622 27.8856 37.4187 34.2928 35.0959 41.2581C33.0165 47.4933 32.1162 54.0541 32.4334 60.6058C32.495 61.8782 31.5668 63.0012 30.2983 63.118Z" fill="url(#paint0_linear_4920_6071)"/>
<circle cx="29.6416" cy="61.5847" r="2.3896" fill="white"/>
<path d="M0.798011 46.4847L0.798035 46.4846C0.833136 46.4338 0.894876 46.3865 0.977222 46.3865C1.05957 46.3865 1.12131 46.4338 1.15641 46.4846L1.15642 46.4847L1.45067 46.9106L1.74438 46.4854C1.7616 46.46 1.7848 46.4356 1.81474 46.4169C1.84563 46.3977 1.88246 46.3856 1.92252 46.3851C1.96261 46.3846 1.99988 46.3958 2.0314 46.4145C2.06244 46.4329 2.0865 46.4575 2.1043 46.4832L0.798011 46.4847ZM0.798011 46.4847C0.763213 46.5351 0.748331 46.595 0.748331 46.6507C0.748331 46.7063 0.763213 46.7663 0.798011 46.8167L0.798023 46.8167L1.15678 47.3359L0.798011 46.4847Z" fill="#172337" stroke="#172337" stroke-width="0.3"/>
<circle cx="141" cy="61.69" r="2.3896" fill="white"/>
<path d="M78.0198 46.5903L78.0198 46.5903C78.0549 46.5395 78.1166 46.4921 78.199 46.4921C78.2813 46.4921 78.3431 46.5395 78.3782 46.5903L78.3782 46.5903L78.6724 47.0162L78.9661 46.5911C78.9834 46.5656 79.0066 46.5412 79.0365 46.5226C79.0674 46.5034 79.1042 46.4912 79.1443 46.4907C79.1844 46.4902 79.2216 46.5014 79.2532 46.5201C79.2842 46.5385 79.3083 46.5631 79.3261 46.5889L78.0198 46.5903ZM78.0198 46.5903C77.985 46.6407 77.9701 46.7007 77.9701 46.7563C77.9701 46.8119 77.985 46.8719 78.0198 46.9223L78.0198 46.9223L78.3785 47.4416L78.0198 46.5903Z" fill="#172337" stroke="#172337" stroke-width="0.3"/>
<defs>
<linearGradient id="paint0_linear_4920_6071" x1="134.08" y1="119.101" x2="142.116" y2="-0.974241" gradientUnits="userSpaceOnUse">
<stop stop-color="#FF693F"/>
<stop offset="0.515625" stop-color="#EB00B9"/>
<stop offset="1" stop-color="#5F38FF"/>
</linearGradient>
</defs>
</svg>
