<svg width="14" height="16" viewBox="0 0 14 16" fill="none" xmlns="http://www.w3.org/2000/svg">
<path d="M3.11584 4.25758C3.28455 2.64323 4.73825 1.5 6.47569 1.5H7.52431C9.26175 1.5 10.7155 2.64323 10.8842 4.25758L11.2348 7.80303C11.3619 9.01954 11.9113 10.2534 12.7994 11.1515C13.2434 11.6005 12.9022 12.5303 12.2477 12.5303H1.75233C1.09777 12.5303 0.756634 11.6005 1.20061 11.1515C2.08866 10.2534 2.63806 9.01954 2.76519 7.80303L3.11584 4.25758Z" stroke="white" stroke-width="1.20741" stroke-linejoin="round"/>
<path d="M5.13794 12.5303H8.86207V12.7273C8.86207 13.7063 8.0284 14.5 7.00001 14.5C5.97161 14.5 5.13794 13.7063 5.13794 12.7273V12.5303Z" stroke="white" stroke-width="1.20741" stroke-linejoin="round"/>
</svg>
