<svg width="19" height="18" viewBox="0 0 19 18" fill="none" xmlns="http://www.w3.org/2000/svg">
<path opacity="0.6" d="M9.5 16.2C11.4096 16.2 13.2409 15.4414 14.5912 14.0912C15.9414 12.7409 16.7 10.9096 16.7 9C16.7 7.09044 15.9414 5.25909 14.5912 3.90883C13.2409 2.55857 11.4096 1.8 9.5 1.8C7.59044 1.8 5.75909 2.55857 4.40883 3.90883C3.05857 5.25909 2.3 7.09044 2.3 9C2.3 10.9096 3.05857 12.7409 4.40883 14.0912C5.75909 15.4414 7.59044 16.2 9.5 16.2ZM9.5 0C10.6819 0 11.8522 0.232792 12.9442 0.685084C14.0361 1.13738 15.0282 1.80031 15.864 2.63604C16.6997 3.47177 17.3626 4.46392 17.8149 5.55585C18.2672 6.64778 18.5 7.8181 18.5 9C18.5 11.3869 17.5518 13.6761 15.864 15.364C14.1761 17.0518 11.8869 18 9.5 18C4.523 18 0.5 13.95 0.5 9C0.5 6.61305 1.44821 4.32387 3.13604 2.63604C4.82387 0.948211 7.11305 0 9.5 0ZM9.95 4.5V9.225L14 11.628L13.325 12.735L8.6 9.9V4.5H9.95Z" fill="black"/>
</svg>
