<svg width="3" height="15" viewBox="0 0 3 15" fill="none" xmlns="http://www.w3.org/2000/svg">
<path d="M1.24816 2.49164C1.92449 2.49164 2.47276 1.94337 2.47276 1.26705C2.47276 0.59072 1.92449 0.04245 1.24816 0.04245C0.571832 0.04245 0.0235596 0.59072 0.0235596 1.26705C0.0235596 1.94337 0.571832 2.49164 1.24816 2.49164Z" fill="#858D9D"/>
<path d="M1.24816 8.61457C1.92449 8.61457 2.47276 8.0663 2.47276 7.38997C2.47276 6.71364 1.92449 6.16537 1.24816 6.16537C0.571832 6.16537 0.0235596 6.71364 0.0235596 7.38997C0.0235596 8.0663 0.571832 8.61457 1.24816 8.61457Z" fill="#858D9D"/>
<path d="M1.24816 14.7375C1.92449 14.7375 2.47276 14.1892 2.47276 13.5129C2.47276 12.8365 1.92449 12.2883 1.24816 12.2883C0.571832 12.2883 0.0235596 12.8365 0.0235596 13.5129C0.0235596 14.1892 0.571832 14.7375 1.24816 14.7375Z" fill="#858D9D"/>
</svg>
