<svg width="18" height="16" viewBox="0 0 18 16" fill="none" xmlns="http://www.w3.org/2000/svg">
<path d="M2.33366 15.6667C1.87533 15.6667 1.48283 15.5033 1.15616 15.1767C0.829493 14.85 0.666438 14.4578 0.666994 14L0.666994 4C0.666994 3.54166 0.830327 3.14916 1.15699 2.8225C1.48366 2.49583 1.87588 2.33278 2.33366 2.33333L10.7503 2.33333C10.6948 2.61111 10.667 2.88889 10.667 3.16666C10.667 3.44444 10.6948 3.72222 10.7503 4L2.33366 4L9.00033 8.16666L12.042 6.27083C12.2364 6.45139 12.4484 6.60778 12.6778 6.74C12.9073 6.87222 13.1467 6.98666 13.3962 7.08333L9.00033 9.83333L2.33366 5.66666L2.33366 14H15.667V7.25C15.9864 7.18055 16.285 7.08333 16.5628 6.95833C16.8406 6.83333 17.0975 6.68055 17.3337 6.5V14C17.3337 14.4583 17.1703 14.8508 16.8437 15.1775C16.517 15.5042 16.1248 15.6672 15.667 15.6667H2.33366ZM14.8337 5.66666C14.1392 5.66666 13.5489 5.42361 13.0628 4.9375C12.5767 4.45139 12.3337 3.86111 12.3337 3.16666C12.3337 2.47222 12.5767 1.88194 13.0628 1.39583C13.5489 0.90972 14.1392 0.666664 14.8337 0.666664C15.5281 0.666664 16.1184 0.90972 16.6045 1.39583C17.0906 1.88194 17.3337 2.47222 17.3337 3.16666C17.3337 3.86111 17.0906 4.45139 16.6045 4.9375C16.1184 5.42361 15.5281 5.66666 14.8337 5.66666Z" fill="#145C9E"/>
</svg>
