<svg width="19" height="15" viewBox="0 0 19 15" fill="none" xmlns="http://www.w3.org/2000/svg">
<path d="M13.4375 7.5C13.4375 7.32595 13.3684 7.15903 13.2453 7.03596C13.1222 6.91289 12.9553 6.84375 12.7812 6.84375C12.6072 6.84375 12.4403 6.91289 12.3172 7.03596C12.1941 7.15903 12.125 7.32595 12.125 7.5H13.4375ZM9.5 10.125C9.32595 10.125 9.15903 10.1941 9.03596 10.3172C8.91289 10.4403 8.84375 10.6072 8.84375 10.7812C8.84375 10.9553 8.91289 11.1222 9.03596 11.2453C9.15903 11.3684 9.32595 11.4375 9.5 11.4375V10.125ZM5.5625 7.5C5.5625 7.67405 5.63164 7.84097 5.75471 7.96404C5.87778 8.08711 6.0447 8.15625 6.21875 8.15625C6.3928 8.15625 6.55972 8.08711 6.68279 7.96404C6.80586 7.84097 6.875 7.67405 6.875 7.5H5.5625ZM9.5 4.875C9.67405 4.875 9.84097 4.80586 9.96404 4.68279C10.0871 4.55972 10.1562 4.3928 10.1562 4.21875C10.1562 4.0447 10.0871 3.87778 9.96404 3.75471C9.84097 3.63164 9.67405 3.5625 9.5 3.5625V4.875ZM7.67825 12.54C7.50855 12.501 7.33032 12.531 7.18276 12.6235C7.03519 12.7159 6.93039 12.8631 6.89141 13.0328C6.85242 13.2025 6.88244 13.3808 6.97487 13.5283C7.06729 13.6759 7.21455 13.7807 7.38425 13.8197L7.67825 12.54ZM11.6269 2.53612C11.795 2.5812 11.9742 2.55765 12.125 2.47063C12.2757 2.38362 12.3857 2.24029 12.4308 2.07216C12.4759 1.90403 12.4523 1.72487 12.3653 1.57411C12.2783 1.42335 12.135 1.31333 11.9668 1.26825L11.6269 2.53612ZM16.4556 3.73181C16.3921 3.67171 16.3171 3.62492 16.2353 3.59418C16.1534 3.56344 16.0662 3.54938 15.9788 3.55283C15.8914 3.55627 15.8056 3.57714 15.7264 3.61423C15.6472 3.65131 15.5762 3.70385 15.5176 3.76876C15.4589 3.83367 15.4139 3.90965 15.3851 3.99222C15.3562 4.07478 15.3442 4.16228 15.3497 4.24957C15.3551 4.33686 15.378 4.42218 15.4169 4.5005C15.4558 4.57883 15.51 4.64859 15.5762 4.70569L16.4556 3.73181ZM2.49453 11.2229C2.62359 11.336 2.7918 11.394 2.96312 11.3846C3.13445 11.3751 3.29527 11.299 3.41112 11.1724C3.52697 11.0458 3.58863 10.8789 3.5829 10.7074C3.57717 10.5359 3.50451 10.3735 3.38047 10.2549L2.49453 11.2229ZM3.12978 12.9423C3.0671 13.0028 3.01711 13.0752 2.98271 13.1553C2.94832 13.2354 2.93022 13.3215 2.92946 13.4086C2.9287 13.4957 2.94531 13.5822 2.9783 13.6628C3.0113 13.7435 3.06003 13.8167 3.12165 13.8784C3.18326 13.94 3.25654 13.9887 3.33719 14.0217C3.41784 14.0547 3.50425 14.0713 3.59139 14.0705C3.67852 14.0698 3.76464 14.0517 3.8447 14.0173C3.92477 13.9829 3.99718 13.9329 4.05772 13.8702L3.12978 12.9423ZM15.8702 2.05772C15.9898 1.93395 16.0559 1.76818 16.0544 1.59611C16.0529 1.42404 15.9839 1.25945 15.8622 1.13778C15.7406 1.0161 15.576 0.947084 15.4039 0.945589C15.2318 0.944094 15.0661 1.01024 14.9423 1.12978L15.8702 2.05772ZM17.375 7.5C17.375 7.8045 17.2155 8.28947 16.8152 8.88862C16.4261 9.47137 15.8499 10.0994 15.1234 10.6782C13.6678 11.8385 11.6748 12.75 9.5 12.75V14.0625C12.0371 14.0625 14.3097 13.0053 15.9417 11.7046C16.7594 11.0529 17.4321 10.3271 17.9066 9.61772C18.3692 8.92537 18.6875 8.18053 18.6875 7.5H17.375ZM1.625 7.5C1.625 7.1955 1.78447 6.71053 2.18478 6.11137C2.57394 5.52863 3.15013 4.90059 3.87659 4.32178C5.33216 3.16153 7.32519 2.25 9.5 2.25V0.9375C6.96294 0.9375 4.69034 1.99472 3.05825 3.29541C2.24056 3.94706 1.56791 4.67222 1.09344 5.38228C0.630781 6.07463 0.3125 6.81947 0.3125 7.5H1.625ZM12.125 7.5C12.125 8.19619 11.8484 8.86387 11.3562 9.35615C10.8639 9.84844 10.1962 10.125 9.5 10.125V11.4375C10.5443 11.4375 11.5458 11.0227 12.2842 10.2842C13.0227 9.54581 13.4375 8.54429 13.4375 7.5H12.125ZM6.875 7.5C6.875 6.80381 7.15156 6.13613 7.64384 5.64384C8.13613 5.15156 8.80381 4.875 9.5 4.875V3.5625C8.45571 3.5625 7.45419 3.97734 6.71577 4.71577C5.97734 5.45419 5.5625 6.45571 5.5625 7.5H6.875ZM9.5 12.75C8.87525 12.75 8.26559 12.6752 7.67825 12.54L7.38425 13.8197C8.06084 13.9746 8.76959 14.0625 9.5 14.0625V12.75ZM9.5 2.25C10.2337 2.25 10.947 2.35369 11.6263 2.53612L11.9675 1.26825C11.1631 1.05033 10.3334 0.939131 9.5 0.9375V2.25ZM15.5756 4.70569C16.1655 5.23856 16.6256 5.79178 16.9347 6.29841C17.251 6.81684 17.375 7.23225 17.375 7.5H18.6875C18.6875 6.891 18.4322 6.23344 18.0555 5.61525C17.671 4.98394 17.1237 4.33556 16.4556 3.73181L15.5762 4.70569H15.5756ZM3.38047 10.2549C2.80428 9.72731 2.35475 9.18131 2.05419 8.68322C1.74575 8.172 1.625 7.76447 1.625 7.5H0.3125C0.3125 8.10178 0.561875 8.75081 0.930031 9.36112C1.30606 9.98456 1.84156 10.6251 2.49453 11.2229L3.38047 10.2549ZM4.05772 13.8709L15.8702 2.05838L14.9423 1.12978L3.12978 12.9423L4.05772 13.8702V13.8709Z" fill="#172337"/>
</svg>
