<svg width="20" height="20" viewBox="0 0 20 20" fill="none" xmlns="http://www.w3.org/2000/svg">
<path d="M15.417 8.33332L19.0837 17.5H17.2878L16.287 15H12.8787L11.8795 17.5H10.0845L13.7503 8.33332H15.417ZM8.33366 1.66666V3.33332H13.3337V4.99999H11.6937C11.0508 6.93505 10.0249 8.72084 8.67699 10.2508C9.27808 10.7872 9.93006 11.2636 10.6237 11.6733L9.99782 13.2383C9.10242 12.7305 8.26499 12.1266 7.50033 11.4375C6.01164 12.7848 4.24869 13.7935 2.33283 14.3942L1.88616 12.7867C3.52769 12.2632 5.04034 11.3994 6.32533 10.2517C5.37423 9.17494 4.58204 7.96771 3.97283 6.66666H5.83949C6.30395 7.52404 6.86088 8.32799 7.50033 9.06416C8.54208 7.86341 9.36308 6.48774 9.92533 5.00082L1.66699 4.99999V3.33332H6.66699V1.66666H8.33366ZM14.5837 10.7375L13.5445 13.3333H15.6212L14.5837 10.7375Z" fill="black"/>
</svg>
