<svg width="14" height="18" viewBox="0 0 14 18" fill="none" xmlns="http://www.w3.org/2000/svg">
<path d="M6.99967 9C7.45801 9 7.85051 8.83667 8.17717 8.51C8.50329 8.18389 8.66634 7.79167 8.66634 7.33334C8.66634 6.875 8.50329 6.4825 8.17717 6.15584C7.85051 5.82973 7.45801 5.66667 6.99967 5.66667C6.54134 5.66667 6.14912 5.82973 5.82301 6.15584C5.49634 6.4825 5.33301 6.875 5.33301 7.33334C5.33301 7.79167 5.49634 8.18389 5.82301 8.51C6.14912 8.83667 6.54134 9 6.99967 9ZM6.99967 15.125C8.69412 13.5694 9.95106 12.1561 10.7705 10.885C11.59 9.61445 11.9997 8.48612 11.9997 7.5C11.9997 5.98612 11.5169 4.74639 10.5513 3.78084C9.58634 2.81584 8.40245 2.33334 6.99967 2.33334C5.5969 2.33334 4.41273 2.81584 3.44717 3.78084C2.48217 4.74639 1.99967 5.98612 1.99967 7.5C1.99967 8.48612 2.4094 9.61445 3.22884 10.885C4.04829 12.1561 5.30523 13.5694 6.99967 15.125ZM6.99967 17.3333C4.76356 15.4306 3.09356 13.6631 1.98967 12.0308C0.88523 10.3992 0.333008 8.88889 0.333008 7.5C0.333008 5.41667 1.00329 3.75695 2.34384 2.52084C3.68384 1.28473 5.23579 0.666672 6.99967 0.666672C8.76356 0.666672 10.3155 1.28473 11.6555 2.52084C12.9961 3.75695 13.6663 5.41667 13.6663 7.5C13.6663 8.88889 13.1144 10.3992 12.0105 12.0308C10.9061 13.6631 9.23579 15.4306 6.99967 17.3333Z" fill="#145C9E"/>
</svg>
