<svg width="20" height="17" viewBox="0 0 20 17" fill="none" xmlns="http://www.w3.org/2000/svg">
<path fill-rule="evenodd" clip-rule="evenodd" d="M4.99998 1.87122C4.99998 1.606 4.89462 1.35165 4.70709 1.16411C4.51955 0.976573 4.2652 0.871216 3.99998 0.871216C3.73476 0.871216 3.48041 0.976573 3.29287 1.16411C3.10534 1.35165 2.99998 1.606 2.99998 1.87122L2.99998 13.4572L1.70698 12.1642C1.51838 11.9821 1.26578 11.8813 1.00358 11.8835C0.741382 11.8858 0.490569 11.991 0.305161 12.1764C0.119753 12.3618 0.0145843 12.6126 0.0123059 12.8748C0.0100274 13.137 0.110822 13.3896 0.29298 13.5782L3.29298 16.5782C3.48051 16.7657 3.73482 16.871 3.99998 16.871C4.26514 16.871 4.51945 16.7657 4.70698 16.5782L7.70698 13.5782C7.88914 13.3896 7.98993 13.137 7.98765 12.8748C7.98538 12.6126 7.88021 12.3618 7.6948 12.1764C7.50939 11.991 7.25858 11.8858 6.99638 11.8835C6.73418 11.8813 6.48158 11.9821 6.29298 12.1642L4.99998 13.4572L4.99998 1.87122ZM11 2.87122C10.7348 2.87122 10.4804 2.97657 10.2929 3.16411C10.1053 3.35165 9.99998 3.606 9.99998 3.87122C9.99998 4.13643 10.1053 4.39079 10.2929 4.57832C10.4804 4.76586 10.7348 4.87122 11 4.87122L19 4.87122C19.2652 4.87122 19.5196 4.76586 19.7071 4.57832C19.8946 4.39079 20 4.13643 20 3.87122C20 3.606 19.8946 3.35165 19.7071 3.16411C19.5196 2.97657 19.2652 2.87122 19 2.87122H11ZM11 7.87122C10.7348 7.87122 10.4804 7.97657 10.2929 8.16411C10.1053 8.35165 9.99998 8.606 9.99998 8.87122C9.99998 9.13643 10.1053 9.39079 10.2929 9.57832C10.4804 9.76586 10.7348 9.87122 11 9.87122H15C15.2652 9.87122 15.5196 9.76586 15.7071 9.57832C15.8946 9.39079 16 9.13643 16 8.87122C16 8.606 15.8946 8.35165 15.7071 8.16411C15.5196 7.97657 15.2652 7.87122 15 7.87122H11ZM11 12.8712C10.7348 12.8712 10.4804 12.9766 10.2929 13.1641C10.1053 13.3516 9.99998 13.606 9.99998 13.8712C9.99998 14.1364 10.1053 14.3908 10.2929 14.5783C10.4804 14.7659 10.7348 14.8712 11 14.8712H12C12.2652 14.8712 12.5196 14.7659 12.7071 14.5783C12.8946 14.3908 13 14.1364 13 13.8712C13 13.606 12.8946 13.3516 12.7071 13.1641C12.5196 12.9766 12.2652 12.8712 12 12.8712H11Z" fill="#0000FF"/>
</svg>
