<svg width="17" height="10" viewBox="0 0 17 10" fill="none" xmlns="http://www.w3.org/2000/svg">
<path fill-rule="evenodd" clip-rule="evenodd" d="M0.293031 1.16424C0.480558 0.976765 0.734866 0.87145 1.00003 0.87145C1.26519 0.87145 1.5195 0.976765 1.70703 1.16424L8.00003 7.45724L14.293 1.16424C14.3853 1.06873 14.4956 0.992543 14.6176 0.940134C14.7396 0.887725 14.8709 0.860139 15.0036 0.858986C15.1364 0.857832 15.2681 0.883134 15.391 0.933415C15.5139 0.983695 15.6255 1.05795 15.7194 1.15184C15.8133 1.24573 15.8876 1.35739 15.9379 1.48028C15.9881 1.60318 16.0134 1.73486 16.0123 1.86764C16.0111 2.00042 15.9835 2.13164 15.9311 2.25364C15.8787 2.37564 15.8025 2.48599 15.707 2.57824L8.70703 9.57824C8.5195 9.76571 8.26519 9.87102 8.00003 9.87102C7.73487 9.87102 7.48056 9.76571 7.29303 9.57824L0.293031 2.57824C0.10556 2.39071 0.000244141 2.1364 0.000244141 1.87124C0.000244141 1.60607 0.10556 1.35176 0.293031 1.16424Z" fill="#0000FF"/>
</svg>
