<svg width="20" height="20" viewBox="0 0 20 20" fill="none" xmlns="http://www.w3.org/2000/svg">
<path d="M16.667 14.1667H18.3337V15.8333H1.66699V14.1667H3.33366V8.33334C3.33366 6.56523 4.03604 4.86954 5.28628 3.61929C6.53652 2.36905 8.23222 1.66667 10.0003 1.66667C11.7684 1.66667 13.4641 2.36905 14.7144 3.61929C15.9646 4.86954 16.667 6.56523 16.667 8.33334V14.1667ZM15.0003 14.1667V8.33334C15.0003 7.00726 14.4735 5.73549 13.5359 4.7978C12.5982 3.86012 11.3264 3.33334 10.0003 3.33334C8.67424 3.33334 7.40247 3.86012 6.46479 4.7978C5.52711 5.73549 5.00033 7.00726 5.00033 8.33334V14.1667H15.0003ZM7.50033 17.5H12.5003V19.1667H7.50033V17.5Z" fill="black"/>
</svg>
