<svg width="20" height="16" viewBox="0 0 20 16" fill="none" xmlns="http://www.w3.org/2000/svg">
<path d="M18.333 13.8333V15.5H16.6663V13.8333H3.33301V15.5H1.66634V13.8333C1.44533 13.8333 1.23337 13.7455 1.07709 13.5893C0.920805 13.433 0.833008 13.221 0.833008 13V3C0.833008 2.77899 0.920805 2.56703 1.07709 2.41075C1.23337 2.25447 1.44533 2.16667 1.66634 2.16667H10.4397C10.9081 1.64172 11.4824 1.22183 12.1247 0.934579C12.767 0.647332 13.4627 0.49923 14.1663 0.500003C15.6472 0.500003 16.978 1.14417 17.893 2.16667H18.333C18.554 2.16667 18.766 2.25447 18.9223 2.41075C19.0785 2.56703 19.1663 2.77899 19.1663 3V13C19.1663 13.221 19.0785 13.433 18.9223 13.5893C18.766 13.7455 18.554 13.8333 18.333 13.8333ZM9.45051 3.83334H2.49967V12.1667H17.4997V9.22667C16.6723 9.96773 15.6217 10.4122 14.5137 10.4899C13.4057 10.5676 12.3033 10.2742 11.3806 9.65594C10.4578 9.03765 9.76721 8.12971 9.41773 7.07539C9.06824 6.02106 9.07978 4.88038 9.45051 3.83334ZM14.1663 8.83334C15.0504 8.83334 15.8982 8.48215 16.5234 7.85703C17.1485 7.2319 17.4997 6.38406 17.4997 5.5C17.4997 4.61595 17.1485 3.7681 16.5234 3.14298C15.8982 2.51786 15.0504 2.16667 14.1663 2.16667C13.2823 2.16667 12.4344 2.51786 11.8093 3.14298C11.1842 3.7681 10.833 4.61595 10.833 5.5C10.833 6.38406 11.1842 7.2319 11.8093 7.85703C12.4344 8.48215 13.2823 8.83334 14.1663 8.83334ZM4.16634 8.83334H5.83301V10.5H4.16634V8.83334ZM6.66634 8.83334H8.33301V10.5H6.66634V8.83334Z" fill="black"/>
</svg>
