<svg width="16" height="16" viewBox="0 0 16 16" fill="none" xmlns="http://www.w3.org/2000/svg">
<path d="M13.8333 8C13.8333 6.375 13.2672 4.99639 12.135 3.86417C11.0033 2.7325 9.625 2.16667 8 2.16667V0.5C9.04167 0.5 10.0175 0.697778 10.9275 1.09333C11.8369 1.48944 12.6286 2.02417 13.3025 2.6975C13.9758 3.37139 14.5106 4.16306 14.9067 5.0725C15.3022 5.9825 15.5 6.95833 15.5 8H13.8333ZM10.5 8C10.5 7.30556 10.2569 6.71528 9.77083 6.22917C9.28472 5.74306 8.69444 5.5 8 5.5V3.83333C9.15278 3.83333 10.1356 4.23944 10.9483 5.05167C11.7606 5.86444 12.1667 6.84722 12.1667 8H10.5ZM14.625 15.5C12.8333 15.5 11.0869 15.1042 9.38583 14.3125C7.68417 13.5208 6.17722 12.4653 4.865 11.1458C3.55222 9.82639 2.49667 8.31583 1.69833 6.61417C0.899445 4.91306 0.5 3.16667 0.5 1.375V0.9375C0.5 0.784722 0.513889 0.638889 0.541667 0.5L5.41667 0.5L6.1875 4.6875L3.8125 7.08333C4.39583 8.08333 5.12861 9.02083 6.01083 9.89583C6.8925 10.7708 7.86111 11.5278 8.91667 12.1667L11.3333 9.75L15.5 10.5833V15.4583C15.3611 15.4722 15.2153 15.4828 15.0625 15.49C14.9097 15.4967 14.7639 15.5 14.625 15.5ZM3.02083 5.5L4.39583 4.125L4.04167 2.16667H2.1875C2.25694 2.73611 2.35417 3.29861 2.47917 3.85417C2.60417 4.40972 2.78472 4.95833 3.02083 5.5ZM10.4792 12.9583C11.0208 13.1944 11.5731 13.3819 12.1358 13.5208C12.6981 13.6597 13.2639 13.75 13.8333 13.7917V11.9583L11.875 11.5625L10.4792 12.9583Z" fill="#145C9E"/>
</svg>
