<svg width="20" height="20" viewBox="0 0 20 20" fill="none" xmlns="http://www.w3.org/2000/svg">
<path d="M15.8337 5.83334H20.0003V7.50001H15.8337V5.83334ZM14.167 10H20.0003V11.6667H14.167V10ZM16.667 14.1667H20.0003V15.8333H16.667V14.1667ZM1.66699 18.3333C1.66699 16.5652 2.36937 14.8695 3.61961 13.6193C4.86986 12.3691 6.56555 11.6667 8.33366 11.6667C10.1018 11.6667 11.7975 12.3691 13.0477 13.6193C14.2979 14.8695 15.0003 16.5652 15.0003 18.3333H13.3337C13.3337 17.0073 12.8069 15.7355 11.8692 14.7978C10.9315 13.8601 9.65974 13.3333 8.33366 13.3333C7.00758 13.3333 5.73581 13.8601 4.79813 14.7978C3.86044 15.7355 3.33366 17.0073 3.33366 18.3333H1.66699ZM8.33366 10.8333C5.57116 10.8333 3.33366 8.59584 3.33366 5.83334C3.33366 3.07084 5.57116 0.833344 8.33366 0.833344C11.0962 0.833344 13.3337 3.07084 13.3337 5.83334C13.3337 8.59584 11.0962 10.8333 8.33366 10.8333ZM8.33366 9.16668C10.1753 9.16668 11.667 7.67501 11.667 5.83334C11.667 3.99168 10.1753 2.50001 8.33366 2.50001C6.49199 2.50001 5.00033 3.99168 5.00033 5.83334C5.00033 7.67501 6.49199 9.16668 8.33366 9.16668Z" fill="black"/>
</svg>
