<svg width="30" height="30" viewBox="0 0 30 30" fill="none" xmlns="http://www.w3.org/2000/svg">
<path d="M11.25 17.5C11.9404 17.5 12.5 16.9404 12.5 16.25C12.5 15.5596 11.9404 15 11.25 15C10.5596 15 10 15.5596 10 16.25C10 16.9404 10.5596 17.5 11.25 17.5Z" fill="white"/>
<path d="M18.75 17.5C19.4404 17.5 20 16.9404 20 16.25C20 15.5596 19.4404 15 18.75 15C18.0596 15 17.5 15.5596 17.5 16.25C17.5 16.9404 18.0596 17.5 18.75 17.5Z" fill="white"/>
<path d="M22.5001 13.7875C22.202 12.0302 21.2918 10.435 19.9306 9.28423C18.5694 8.1335 16.845 7.50146 15.0626 7.5C11.2751 7.5 7.20008 10.6375 7.52508 15.5625C9.0665 14.9317 10.4279 13.9294 11.4879 12.6447C12.5479 11.3601 13.2735 9.83315 13.6001 8.2C15.2376 11.4875 18.6001 13.75 22.5001 13.7875Z" fill="white"/>
<path d="M26.2375 15C26.1 8.2875 20.85 3.75 15 3.75C9.2375 3.75 3.9375 8.1625 3.7625 15H2.5V22.5H6.25V15.2375C6.25 10.45 9.9375 6.2625 14.725 6.125C15.8967 6.08937 17.0636 6.28929 18.1566 6.71293C19.2496 7.13657 20.2465 7.77529 21.0881 8.59126C21.9297 9.40723 22.599 10.3838 23.0562 11.4632C23.5134 12.5426 23.7494 13.7028 23.75 14.875V23.75H13.75V26.25H26.25V22.5H27.5V15H26.2375Z" fill="white"/>
</svg>
