<svg width="14" height="14" viewBox="0 0 14 14" fill="none" xmlns="http://www.w3.org/2000/svg">
<mask id="path-1-inside-1_4933_119" fill="white">
<path d="M6.85417 13.7083C5.49854 13.7083 4.17336 13.3063 3.0462 12.5532C1.91904 11.8001 1.04052 10.7296 0.521745 9.47715C0.0029698 8.22471 -0.132766 6.84657 0.131704 5.51699C0.396173 4.18741 1.04897 2.96611 2.00754 2.00754C2.96611 1.04897 4.18741 0.396173 5.51699 0.131704C6.84657 -0.132766 8.22471 0.0029698 9.47715 0.521745C10.7296 1.04052 11.8001 1.91904 12.5532 3.0462C13.3063 4.17336 13.7083 5.49854 13.7083 6.85417C13.7063 8.67137 12.9835 10.4136 11.6985 11.6985C10.4136 12.9835 8.67137 13.7063 6.85417 13.7083ZM6.85417 0.97917C5.6922 0.97917 4.55633 1.32373 3.59019 1.96929C2.62406 2.61484 1.87104 3.53239 1.42638 4.6059C0.981713 5.67942 0.865368 6.86069 1.09206 8.00032C1.31874 9.13996 1.87828 10.1868 2.69992 11.0084C3.52155 11.8301 4.56838 12.3896 5.70801 12.6163C6.84765 12.843 8.02892 12.7266 9.10243 12.282C10.176 11.8373 11.0935 11.0843 11.7391 10.1181C12.3846 9.15201 12.7292 8.01614 12.7292 6.85417C12.7274 5.29658 12.1078 3.8033 11.0064 2.70192C9.90504 1.60054 8.41176 0.980984 6.85417 0.97917Z"/>
</mask>
<path d="M6.85417 13.7083C5.49854 13.7083 4.17336 13.3063 3.0462 12.5532C1.91904 11.8001 1.04052 10.7296 0.521745 9.47715C0.0029698 8.22471 -0.132766 6.84657 0.131704 5.51699C0.396173 4.18741 1.04897 2.96611 2.00754 2.00754C2.96611 1.04897 4.18741 0.396173 5.51699 0.131704C6.84657 -0.132766 8.22471 0.0029698 9.47715 0.521745C10.7296 1.04052 11.8001 1.91904 12.5532 3.0462C13.3063 4.17336 13.7083 5.49854 13.7083 6.85417C13.7063 8.67137 12.9835 10.4136 11.6985 11.6985C10.4136 12.9835 8.67137 13.7063 6.85417 13.7083ZM6.85417 0.97917C5.6922 0.97917 4.55633 1.32373 3.59019 1.96929C2.62406 2.61484 1.87104 3.53239 1.42638 4.6059C0.981713 5.67942 0.865368 6.86069 1.09206 8.00032C1.31874 9.13996 1.87828 10.1868 2.69992 11.0084C3.52155 11.8301 4.56838 12.3896 5.70801 12.6163C6.84765 12.843 8.02892 12.7266 9.10243 12.282C10.176 11.8373 11.0935 11.0843 11.7391 10.1181C12.3846 9.15201 12.7292 8.01614 12.7292 6.85417C12.7274 5.29658 12.1078 3.8033 11.0064 2.70192C9.90504 1.60054 8.41176 0.980984 6.85417 0.97917Z" fill="#172337"/>
<path d="M6.85417 13.7083V16.7083L6.85759 16.7083L6.85417 13.7083ZM13.7083 6.85417L16.7083 6.85759V6.85417H13.7083ZM6.85417 0.97917L6.85766 -2.02083H6.85417V0.97917ZM12.7292 6.85417H15.7292L15.7292 6.85068L12.7292 6.85417ZM6.85417 10.7083C6.09189 10.7083 5.34672 10.4823 4.71291 10.0588L1.37949 15.0476C3 16.1304 4.9052 16.7083 6.85417 16.7083V10.7083ZM4.71291 10.0588C4.07909 9.63529 3.5851 9.03335 3.29338 8.32909L-2.24989 10.6252C-1.50405 12.4258 -0.241022 13.9648 1.37949 15.0476L4.71291 10.0588ZM3.29338 8.32909C3.00167 7.62484 2.92535 6.84989 3.07406 6.10226L-2.81065 4.93172C-3.19088 6.84324 -2.99573 8.82458 -2.24989 10.6252L3.29338 8.32909ZM3.07406 6.10226C3.22277 5.35462 3.58985 4.66788 4.12886 4.12886L-0.113779 -0.113779C-1.49191 1.26435 -2.43043 3.0202 -2.81065 4.93172L3.07406 6.10226ZM4.12886 4.12886C4.66788 3.58985 5.35462 3.22277 6.10226 3.07406L4.93172 -2.81065C3.0202 -2.43043 1.26435 -1.49191 -0.113779 -0.113779L4.12886 4.12886ZM6.10226 3.07406C6.84989 2.92535 7.62484 3.00167 8.32909 3.29338L10.6252 -2.24989C8.82458 -2.99573 6.84324 -3.19088 4.93172 -2.81065L6.10226 3.07406ZM8.32909 3.29338C9.03335 3.5851 9.63529 4.07909 10.0588 4.71291L15.0476 1.37949C13.9648 -0.241022 12.4258 -1.50405 10.6252 -2.24989L8.32909 3.29338ZM10.0588 4.71291C10.4823 5.34672 10.7083 6.09189 10.7083 6.85417H16.7083C16.7083 4.9052 16.1304 3 15.0476 1.37949L10.0588 4.71291ZM10.7083 6.85075C10.7072 7.87349 10.3004 8.854 9.57719 9.57719L13.8198 13.8198C15.6666 11.9731 16.7054 9.46926 16.7083 6.85759L10.7083 6.85075ZM9.57719 9.57719C8.854 10.3004 7.87349 10.7072 6.85075 10.7083L6.85759 16.7083C9.46926 16.7054 11.9731 15.6666 13.8198 13.8198L9.57719 9.57719ZM6.85417 -2.02083C5.09886 -2.02083 3.38297 -1.50032 1.92348 -0.525123L5.25691 4.46369C5.7297 4.14779 6.28555 3.97917 6.85417 3.97917V-2.02083ZM1.92348 -0.525123C0.463998 0.450074 -0.673533 1.83616 -1.34526 3.45785L4.19802 5.75395C4.41562 5.22862 4.78411 4.7796 5.25691 4.46369L1.92348 -0.525123ZM-1.34526 3.45785C-2.01699 5.07955 -2.19274 6.86401 -1.8503 8.5856L4.03441 7.41505C3.92348 6.85736 3.98041 6.27929 4.19802 5.75395L-1.34526 3.45785ZM-1.8503 8.5856C-1.50786 10.3072 -0.662594 11.8886 0.578597 13.1297L4.82124 8.8871C4.41916 8.48503 4.14534 7.97275 4.03441 7.41505L-1.8503 8.5856ZM0.578597 13.1297C1.81979 14.3709 3.40116 15.2162 5.12274 15.5586L6.29329 9.67393C5.73559 9.56299 5.22331 9.28918 4.82124 8.8871L0.578597 13.1297ZM5.12274 15.5586C6.84432 15.9011 8.62879 15.7253 10.2505 15.0536L7.95438 9.51032C7.42905 9.72792 6.85098 9.78486 6.29329 9.67393L5.12274 15.5586ZM10.2505 15.0536C11.8722 14.3819 13.2583 13.2443 14.2335 11.7849L9.24464 8.45143C8.92873 8.92422 8.47972 9.29272 7.95438 9.51032L10.2505 15.0536ZM14.2335 11.7849C15.2087 10.3254 15.7292 8.60948 15.7292 6.85417H9.72917C9.72917 7.42279 9.56055 7.97864 9.24464 8.45143L14.2335 11.7849ZM15.7292 6.85068C15.7264 4.49865 14.7909 2.24374 13.1277 0.5806L8.8851 4.82324C9.42473 5.36287 9.72828 6.09451 9.72917 6.85766L15.7292 6.85068ZM13.1277 0.5806C11.4646 -1.08254 9.20969 -2.01809 6.85766 -2.02083L6.85068 3.97917C7.61383 3.98006 8.34547 4.28361 8.8851 4.82324L13.1277 0.5806Z" fill="#172337" mask="url(#path-1-inside-1_4933_119)"/>
<path d="M6.65835 3.30121L6.05826 3.88577L8.39987 6.23871H3.30121V7.07799H8.39987L6.05826 9.41666L6.65835 10.0155L10.0155 6.65835L6.65835 3.30121Z" fill="#172337"/>
</svg>
