<svg width="19" height="17" viewBox="0 0 19 17" fill="none" xmlns="http://www.w3.org/2000/svg">
<path d="M16.5152 11.8521V14.3448C16.5152 14.9242 16.5152 15.2139 16.4078 15.4352C16.3134 15.6298 16.1627 15.7881 15.9774 15.8872C15.7667 16 15.491 16 14.9394 16H3.81061C3.25904 16 2.98326 16 2.77259 15.8872C2.58727 15.7881 2.43661 15.6298 2.34219 15.4352C2.23485 15.2139 2.23485 14.9242 2.23485 14.3448V11.8521M12.5758 4.10345V2.65517C12.5758 2.07581 12.5758 1.78613 12.4684 1.56484C12.374 1.37019 12.2233 1.21193 12.038 1.11275C11.8274 1 11.5516 1 11 1H7.75C7.19843 1 6.92265 1 6.71198 1.11275C6.52667 1.21193 6.37601 1.37019 6.28158 1.56484C6.17424 1.78613 6.17424 2.07581 6.17424 2.65517V4.10345M11.5909 10.3103V12.8966M7.15909 10.3103V12.8966M2.82576 11.8621H15.9242C16.4758 11.8621 16.7516 11.8621 16.9623 11.7493C17.1476 11.6501 17.2982 11.4919 17.3927 11.2972C17.5 11.0759 17.5 10.7863 17.5 10.2069V5.75862C17.5 5.17926 17.5 4.88957 17.3927 4.66829C17.2982 4.47364 17.1476 4.31538 16.9623 4.2162C16.7516 4.10345 16.4758 4.10345 15.9242 4.10345H2.82576C2.27419 4.10345 1.99841 4.10345 1.78774 4.2162C1.60243 4.31538 1.45176 4.47364 1.35734 4.66829C1.25 4.88957 1.25 5.17926 1.25 5.75862V10.2069C1.25 10.7863 1.25 11.0759 1.35734 11.2972C1.45176 11.4919 1.60243 11.6501 1.78774 11.7493C1.99841 11.8621 2.27419 11.8621 2.82576 11.8621Z" stroke="#404040" stroke-width="1.50926" stroke-linecap="round" stroke-linejoin="round"/>
</svg>
