<svg width="19" height="18" viewBox="0 0 19 18" fill="none" xmlns="http://www.w3.org/2000/svg">
<path d="M11.3447 2.22727C11.3447 1.4114 10.6833 0.75 9.86742 0.75H8.88258C8.0667 0.75 7.4053 1.4114 7.4053 2.22727V2.93093C7.4053 3.36963 6.87489 3.58933 6.56468 3.27912L6.06714 2.78158C5.49023 2.20467 4.55487 2.20467 3.97796 2.78158L3.28157 3.47797C2.70465 4.05488 2.70465 4.99024 3.28157 5.56715L3.7791 6.06468C4.08931 6.37489 3.86961 6.9053 3.4309 6.9053L2.72727 6.9053C1.9114 6.9053 1.25 7.5667 1.25 8.38257L1.25 9.36742C1.25 10.1833 1.9114 10.8447 2.72727 10.8447H3.43087C3.86958 10.8447 4.08928 11.3751 3.77907 11.6853L3.28156 12.1828C2.70465 12.7597 2.70465 13.6951 3.28156 14.272L3.97795 14.9684C4.55486 15.5453 5.49022 15.5453 6.06713 14.9684L6.56468 14.4708C6.87489 14.1606 7.4053 14.3803 7.4053 14.819V15.5227C7.4053 16.3386 8.0667 17 8.88258 17H9.86742C10.6833 17 11.3447 16.3386 11.3447 15.5227V14.8191C11.3447 14.3804 11.8751 14.1607 12.1853 14.4709L12.6829 14.9685C13.2598 15.5454 14.1951 15.5454 14.7721 14.9685L15.4684 14.2721C16.0454 13.6952 16.0454 12.7598 15.4684 12.1829L14.9709 11.6853C14.6607 11.3751 14.8804 10.8447 15.3191 10.8447H16.0227C16.8386 10.8447 17.5 10.1833 17.5 9.36742V8.38258C17.5 7.5667 16.8386 6.9053 16.0227 6.9053L15.319 6.9053C14.8803 6.9053 14.6606 6.37489 14.9708 6.06468L15.4684 5.56709C16.0453 4.99018 16.0453 4.05482 15.4684 3.47791L14.772 2.78152C14.1951 2.20461 13.2598 2.20461 12.6829 2.78152L12.1853 3.27907C11.8751 3.58928 11.3447 3.36957 11.3447 2.93087V2.22727Z" stroke="white" stroke-width="1.50926" stroke-linejoin="round"/>
<path d="M12.0833 8.875C12.0833 10.3708 10.8708 11.5833 9.375 11.5833C7.87923 11.5833 6.66667 10.3708 6.66667 8.875C6.66667 7.37923 7.87923 6.16667 9.375 6.16667C10.8708 6.16667 12.0833 7.37923 12.0833 8.875Z" stroke="white" stroke-width="1.50926" stroke-linejoin="round"/>
</svg>
